<?xml version="1.0" standalone="no"?><svg viewBox="0 0 200 200" style="background-color:#ffffff00" version="1.1" xmlns="http://www.w3.org/2000/svg" xmlns:xlink="http://www.w3.org/1999/xlink" xml:space="preserve" x="0px" y="0px" width="100%" height="100%">	<g id="Layer_1_1">		<path d="M 87.9 46.9 L 123.1 46.4 L 139.1 46.9 L 166.4 46.9 C 169.4 47.9 168.6 51.4 168.9 53.6 C 169.6 61.6 170.9 77.9 170.9 78.6 L 168.9 104.4 L 169.1 149.4 C 168.9 150.1 168.6 150.6 168.1 150.9 C 166.6 151.9 163.9 151.9 162.6 151.9 C 157.4 152.4 151.9 152.6 146.6 153.1 L 135.9 153.6 L 48.9 152.4 C 43.1 151.9 37.1 151.9 31.6 150.9 C 31.3 150.8 30.9 150.6 30.6 150.4 C 29.9 150 29.4 149.2 29.4 148.4 L 29.4 148.2 L 29.4 148.1 L 29.1 127.6 L 30.4 115.6 L 30.4 107.9 L 29.4 91.9 L 29.4 81.6 L 30.1 74.1 L 30.1 68.1 C 29.9 65.1 29.4 59.1 29.4 58.6 L 29.9 48.6 C 30.1 47.4 31.1 46.4 32.6 46.4 L 87.9 46.9 ZM 0 200 L 200 200 L 200 0 L 0 0 L 0 200 ZM 126.8 97.3 C 132.2 102.2 141.2 112.4 143.6 115.6 C 145.9 118.4 147.6 121.6 149.4 124.6 C 150.4 125.9 151.1 127.9 152.4 129.6 C 153.6 131.6 155.1 133.9 156.9 135.9 C 157.2 136.3 160.7 139.6 163.9 142.8 L 163.9 118.4 L 163.4 103.9 L 165.9 78.9 L 163.9 55.7 C 161.5 58.3 158.8 61.1 157.6 62.4 C 147.6 73.4 137.9 85.4 127.4 96.6 L 126.8 97.3 ZM 34.7 55.8 L 35.4 118.6 C 34.9 122.9 34.4 127.4 34.1 131.6 L 34.1 141.6 C 35.8 139.9 37.4 138.4 37.9 137.9 C 43.1 132.4 49.1 126.9 54.6 121.1 C 56.4 119.3 68.9 104.2 76 98.5 L 74.6 97.4 C 71.9 94.9 68.9 92.6 66.4 90.1 C 63.4 87.6 60.9 84.4 58.4 81.9 C 50.6 73 42.5 64.5 34.7 55.8 ZM 116.8 99.6 C 117.7 98.8 118.7 98 119.6 97.1 L 120.7 96.1 C 121 95.3 121.5 94.9 122.1 94.7 C 125.5 91.4 128.9 87.8 131.9 84.4 C 137.7 77.6 152.1 60.3 160.2 52.1 L 100.1 51.6 L 69.1 52.1 L 38 51.9 C 39.4 53.4 40.8 55.1 42.1 56.6 C 49.6 64.9 57.4 73.6 65.1 81.9 C 70 86.9 75.4 91.7 80.8 96.5 C 81.5 96.7 82 97.1 82.2 97.7 L 83.2 98.6 C 83.5 97.4 84.1 96.3 85.3 95.4 C 89.3 92.4 94.6 92.6 96 94.4 C 97.5 96.1 99 97.2 99.7 99.7 C 99.7 99.7 101.8 94.9 105.9 93.6 C 109.9 92.3 112.4 92.8 114.9 95.5 C 116 96.7 116.5 98.1 116.8 99.6 ZM 98.7 122 C 98.7 122 87.2 111.9 85.3 107.4 L 84.8 106 C 83.3 104.6 81.7 103.2 80 101.8 C 77.6 104 74.9 106.4 72.6 108.9 C 69.9 111.6 67.1 114.9 64.4 117.9 C 62.9 119.6 61.1 121.6 59.1 123.6 C 51.9 131.1 43.7 138.5 36.9 146.3 L 47.1 147.1 L 60.1 147.1 L 94.1 148.1 L 139.4 148.1 L 160.6 147 C 157 143.5 152.9 139.1 152.6 138.6 C 150.1 135.4 147.9 131.9 145.9 128.4 C 144.6 126.4 143.4 123.9 142.1 122.1 C 140.6 119.6 138.1 116.6 135.9 114.4 C 131.8 109.8 127.3 105.3 123.1 100.8 C 120.5 103.1 117.7 105.3 115.2 107.5 C 113.4 109.7 110.7 112 109.9 112.9 C 108.7 114.2 104.1 118.4 102.4 119.8 C 100.7 121.1 98.7 122 98.7 122 Z" fill="#8cd4c3"/>		<path visibility="hidden" d="M 0 200 L 200 200 L 200 0 L 0 0 L 0 200 Z" fill="none"/>		<path visibility="hidden" d="M 87.9 46.9 L 32.6 46.4 C 31.1 46.4 30.1 47.4 29.9 48.6 L 29.4 58.6 C 29.4 59.1 29.9 65.1 30.1 68.1 L 30.1 74.1 L 29.4 81.6 L 29.4 91.9 L 30.4 107.9 L 30.4 115.6 L 29.1 127.6 L 29.4 148.1 L 29.4 148.2 L 29.4 148.4 C 29.4 149.2 29.9 150 30.6 150.4 C 30.9 150.6 31.3 150.8 31.6 150.9 C 37.1 151.9 43.1 151.9 48.9 152.4 L 135.9 153.6 L 146.6 153.1 C 151.9 152.6 157.4 152.4 162.6 151.9 C 163.9 151.9 166.6 151.9 168.1 150.9 C 168.6 150.6 168.9 150.1 169.1 149.4 L 168.9 104.4 L 170.9 78.6 C 170.9 77.9 169.6 61.6 168.9 53.6 C 168.6 51.4 169.4 47.9 166.4 46.9 L 139.1 46.9 L 123.1 46.4 L 87.9 46.9 ZM 126.8 97.3 L 127.4 96.6 C 137.9 85.4 147.6 73.4 157.6 62.4 C 158.8 61.1 161.5 58.3 163.9 55.7 L 165.9 78.9 L 163.4 103.9 L 163.9 118.4 L 163.9 142.8 C 160.7 139.6 157.2 136.3 156.9 135.9 C 155.1 133.9 153.6 131.6 152.4 129.6 C 151.1 127.9 150.4 125.9 149.4 124.6 C 147.6 121.6 145.9 118.4 143.6 115.6 C 141.2 112.4 132.2 102.2 126.8 97.3 ZM 34.7 55.8 C 42.5 64.5 50.6 73 58.4 81.9 C 60.9 84.4 63.4 87.6 66.4 90.1 C 68.9 92.6 71.9 94.9 74.6 97.4 L 76 98.5 C 68.9 104.2 56.4 119.3 54.6 121.1 C 49.1 126.9 43.1 132.4 37.9 137.9 C 37.4 138.4 35.8 139.9 34.1 141.6 L 34.1 131.6 C 34.4 127.4 34.9 122.9 35.4 118.6 L 34.7 55.8 ZM 116.8 99.6 C 116.5 98.1 116 96.7 114.9 95.5 C 112.4 92.8 109.9 92.3 105.9 93.6 C 101.8 94.9 99.7 99.7 99.7 99.7 C 99 97.2 97.5 96.1 96 94.4 C 94.6 92.6 89.3 92.4 85.3 95.4 C 84.1 96.3 83.5 97.4 83.2 98.6 L 82.2 97.7 C 82 97.1 81.5 96.7 80.8 96.5 C 75.4 91.7 70 86.9 65.1 81.9 C 57.4 73.6 49.6 64.9 42.1 56.6 C 40.8 55.1 39.4 53.4 38 51.9 L 69.1 52.1 L 100.1 51.6 L 160.2 52.1 C 152.1 60.3 137.7 77.6 131.9 84.4 C 128.9 87.8 125.5 91.4 122.1 94.7 C 121.5 94.9 121 95.3 120.7 96.1 L 119.6 97.1 C 118.7 98 117.7 98.8 116.8 99.6 ZM 98.7 122 C 98.7 122 100.7 121.1 102.4 119.8 C 104.1 118.4 108.7 114.2 109.9 112.9 C 110.7 112 113.4 109.7 115.2 107.5 C 117.7 105.3 120.5 103.1 123.1 100.8 C 127.3 105.3 131.8 109.8 135.9 114.4 C 138.1 116.6 140.6 119.6 142.1 122.1 C 143.4 123.9 144.6 126.4 145.9 128.4 C 147.9 131.9 150.1 135.4 152.6 138.6 C 152.9 139.1 157 143.5 160.6 147 L 139.4 148.1 L 94.1 148.1 L 60.1 147.1 L 47.1 147.1 L 36.9 146.3 C 43.7 138.5 51.9 131.1 59.1 123.6 C 61.1 121.6 62.9 119.6 64.4 117.9 C 67.1 114.9 69.9 111.6 72.6 108.9 C 74.9 106.4 77.6 104 80 101.8 C 81.7 103.2 83.3 104.6 84.8 106 L 85.3 107.4 C 87.2 111.9 98.7 122 98.7 122 Z" fill="#ffffff"/>	</g></svg>