<?xml version="1.0" standalone="no"?><svg viewBox="0 0 200 200" style="background-color:#ffffff00" version="1.1" xmlns="http://www.w3.org/2000/svg" xmlns:xlink="http://www.w3.org/1999/xlink" xml:space="preserve" x="0px" y="0px" width="100%" height="100%">	<g id="Background">		<path d="M 0 0 L 0 200 L 200 200 L 200 0 L 0 0 ZM 132.9 53.7 C 132.9 53.7 121.8 53.7 117.4 53.7 C 111.9 53.7 110.7 56 110.7 61.6 C 110.7 66.4 110.7 75.3 110.7 75.3 L 132.9 75.3 L 130.8 99.4 L 110.7 99.4 L 110.7 171.3 L 82 171.3 L 82 99.7 L 67.1 99.7 L 67.1 75.3 L 82 75.3 C 82 75.3 82 71.8 82 56.2 C 82 38.2 91.7 28.8 113 28.8 C 116.5 28.8 132.9 28.8 132.9 28.8 L 132.9 53.7 Z" fill="#3162a6"/>	</g>	<g id="Layer%201">	</g></svg>