<?xml version="1.0" standalone="no"?><svg viewBox="0 0 200 200" style="background-color:#ffffff00" version="1.1" xmlns="http://www.w3.org/2000/svg" xmlns:xlink="http://www.w3.org/1999/xlink" xml:space="preserve" x="0px" y="0px" width="100%" height="100%">	<g id="Background">		<path d="M 104.1 141.7 C 104.1 153.9 94.1 163.5 73.5 163.5 C 57.3 163.5 45.6 153.3 45.6 141 C 45.6 129 59.3 118.6 75.5 118.8 C 93.4 118.8 104.1 130 104.1 141.7 ZM 200 0 L 200 200 L 0 200 L 0 0 L 200 0 ZM 118 140.2 C 118 128.9 113.8 121.5 101 111.9 C 88 102.4 84.8 97 97.2 87.5 C 104.2 82.1 109.1 74.9 109.1 66 C 109.1 56.3 105.1 47.5 97.7 43.2 L 108.2 43.2 L 117.2 33.8 C 117.2 33.8 83.3 33.8 77 33.8 C 51.9 33.8 39.6 48.8 39.6 65.4 C 39.6 82.3 51.2 95.6 73.8 95.6 C 70.3 102.7 71.7 109.3 77.5 114 C 38.8 114 30.5 131 30.5 144 C 30.5 161 50 171.1 73.4 171.1 C 105.3 171.1 118 154.1 118 140.2 ZM 170.5 54.2 L 151.9 54.2 L 151.9 35.6 L 142.6 35.6 L 142.6 54.2 L 124.1 54.2 L 124.1 63.5 L 142.6 63.5 L 142.6 82 L 151.9 82 L 151.9 63.5 L 170.5 63.5 L 170.5 54.2 L 170.5 54.2 ZM 92.9 66.6 C 91.1 52.3 81.8 40.6 70.9 40.3 C 60.1 40 52.8 50.9 54.7 65.1 C 56.6 79.4 66.9 89.3 77.7 89.6 C 88.6 90 94.8 80.8 92.9 66.6 Z" fill="#de4a33"/>	</g>	<g id="Layer%201">	</g></svg>