<?xml version="1.0" standalone="no"?><svg viewBox="0 0 200 200" style="background-color:#ffffff00" version="1.1" xmlns="http://www.w3.org/2000/svg" xmlns:xlink="http://www.w3.org/1999/xlink" xml:space="preserve" x="0px" y="0px" width="100%" height="100%">	<g id="Background">		<path d="M -6 -12 L -6 200 L 206 200 L 206 -12 L -6 -12 ZM 113.5 130.1 C 104.3 130.1 95.6 125.2 92.7 119.5 C 92.7 119.5 87.7 139.2 86.7 142.9 C 83 156.3 72.1 169.7 71.3 170.8 C 70.7 171.6 69.4 171.4 69.3 170.4 C 69 168.6 66.3 151.7 69.5 138 C 71.2 131 80.5 91.5 80.5 91.5 C 80.5 91.5 77.8 86.1 77.8 78 C 77.8 65.4 85.1 56 94.2 56 C 102 56 105.7 61.8 105.7 68.8 C 105.7 76.6 100.7 88.2 98.2 99 C 96 108 102.7 115.4 111.6 115.4 C 127.8 115.4 138.7 94.7 138.7 70.1 C 138.7 51.4 126.1 37.4 103.2 37.4 C 77.3 37.4 61.2 56.7 61.2 78.3 C 61.2 85.7 63.4 90.9 66.9 95 C 68.4 96.8 68.7 97.6 68.1 99.7 C 67.7 101.3 66.7 105.1 66.3 106.6 C 65.8 108.7 64 109.5 62.1 108.7 C 50.2 103.8 44.6 90.8 44.6 76.1 C 44.6 51.9 65 22.9 105.5 22.9 C 138.1 22.9 159.5 46.4 159.5 71.7 C 159.5 105.2 140.9 130.1 113.5 130.1 Z" fill="#cd0030"/>	</g>	<g id="Layer%201">	</g></svg>