<?xml version="1.0" standalone="no"?><svg viewBox="0 0 200 200" style="background-color:#ffffff00" version="1.1" xmlns="http://www.w3.org/2000/svg" xmlns:xlink="http://www.w3.org/1999/xlink" xml:space="preserve" x="0px" y="0px" width="100%" height="100%">	<path d="M 0 0 L 0 200 L 200 200 L 200 0 L 0 0 ZM 155.8 76.3 C 157.5 114.7 128.9 157.4 78.2 157.4 C 62.8 157.4 48.5 152.9 36.4 145.2 C 50.9 146.9 65.3 142.9 76.8 133.9 C 64.9 133.7 54.8 125.8 51.3 114.9 C 55.6 115.8 59.8 115.5 63.6 114.5 C 50.5 111.8 41.5 100 41.8 87.4 C 45.4 89.4 49.6 90.6 54.1 90.8 C 42 82.7 38.5 66.6 45.7 54.3 C 59.1 70.9 79.2 81.7 101.9 82.9 C 97.9 65.8 110.9 49.4 128.5 49.4 C 136.3 49.4 143.4 52.7 148.4 58 C 154.6 56.7 160.5 54.5 165.7 51.4 C 163.7 57.7 159.4 63.1 153.7 66.4 C 159.3 65.8 164.5 64.3 169.4 62.1 C 165.8 67.6 161.1 72.4 155.8 76.3 Z" fill="#00abef"/></svg>